HIERARCHY
ROOT Hips
{
	OFFSET -0.179506 -22.333345 2.821913
	CHANNELS 6 Xposition Yposition Zposition Zrotation Yrotation Xrotation 
	JOINT LeftUpLeg
	{
		OFFSET 6.951974 -9.140623 -0.681533
		CHANNELS 3 Zrotation Yrotation Xrotation
		JOINT LeftLeg
		{
			OFFSET 3.427654 -37.519855 -0.449580
			CHANNELS 3 Zrotation Yrotation Xrotation
			JOINT LeftFoot
			{
				OFFSET -1.359570 -39.796059 -4.369333
				CHANNELS 3 Zrotation Yrotation Xrotation
				JOINT LeftToe
				{
					OFFSET 2.635814 -5.579078 11.928840
					CHANNELS 3 Zrotation Yrotation Xrotation
					End Site
					{
						OFFSET 0.000000 0.000000 0.000000
					}
				}
			}
		}
	}
	JOINT RightUpLeg
	{
		OFFSET -6.767048 -9.052170 -0.431982
		CHANNELS 3 Zrotation Yrotation Xrotation
		JOINT RightLeg
		{
			OFFSET -3.829005 -38.256897 -0.885003
			CHANNELS 3 Zrotation Yrotation Xrotation
			JOINT RightFoot
			{
				OFFSET 1.577377 -39.841461 -4.231180
				CHANNELS 3 Zrotation Yrotation Xrotation
				JOINT RightToe
				{
					OFFSET -2.537174 -4.814398 12.334795
					CHANNELS 3 Zrotation Yrotation Xrotation
					End Site
					{
						OFFSET 0.000000 0.000000 0.000000
					}
				}
			}
		}
	}
	JOINT Spine
	{
		OFFSET -0.253288 10.896323 -2.669631
		CHANNELS 3 Zrotation Yrotation Xrotation
		JOINT Spine1
		{
			OFFSET 0.548704 13.518043 0.109247
			CHANNELS 3 Zrotation Yrotation Xrotation
			JOINT Spine2
			{
				OFFSET 0.145701 5.292222 2.542457
				CHANNELS 3 Zrotation Yrotation Xrotation
				JOINT Neck
				{
					OFFSET -0.277840 21.387037 -4.285703
					CHANNELS 3 Zrotation Yrotation Xrotation
					JOINT Head
					{
						OFFSET 0.515184 6.496960 5.134897
						CHANNELS 3 Zrotation Yrotation Xrotation
						End Site
						{
							OFFSET 0.000000 0.000000 0.000000
						}
					}
				}
				JOINT LeftShoulder
				{
					OFFSET 7.884473 12.174932 -3.408961
					CHANNELS 3 Zrotation Yrotation Xrotation
					JOINT LeftArm
					{
						OFFSET 9.097692 3.046888 -0.886815
						CHANNELS 3 Zrotation Yrotation Xrotation
						JOINT LeftForeArm
						{
							OFFSET 25.961220 -1.277207 -2.745643
							CHANNELS 3 Zrotation Yrotation Xrotation
							JOINT LeftHand
							{
								OFFSET 24.923361 0.898606 -0.117091
								CHANNELS 3 Zrotation Yrotation Xrotation
								End Site
								{
									OFFSET 0.000000 0.000000 0.000000
								}
							}
						}
					}
				}
				JOINT RightShoulder
				{
					OFFSET -8.175920 11.883285 -3.861528
					CHANNELS 3 Zrotation Yrotation Xrotation
					JOINT RightArm
					{
						OFFSET -9.601238 3.255117 -0.914307
						CHANNELS 3 Zrotation Yrotation Xrotation
						JOINT RightForeArm
						{
							OFFSET -25.374195 -1.332924 -2.140099
							CHANNELS 3 Zrotation Yrotation Xrotation
							JOINT RightHand
							{
								OFFSET -25.529810 0.777228 -0.555919
								CHANNELS 3 Zrotation Yrotation Xrotation
								End Site
								{
									OFFSET 0.000000 0.000000 0.000000
								}
							}
						}
					}
				}
			}
		}
	}
}
MOTION
Frames: 13
Frame Time: 0.033333
34.652172 -36.275387 88.002876 -116.051229 1.898625 84.365520 18.370353 7.260017 -5.822329 -6.460148 8.913414 33.369840 0.049687 3.205985 -24.196762 nan nan nan -17.598022 -13.540252 -9.296219 1.707491 -16.747083 24.847630 10.866293 -2.291873 -8.879285 nan nan nan -2.846321 2.317975 14.267781 3.787307 -4.302687 0.610744 0.845626 -1.879533 0.961714 3.564566 -6.536847 4.252581 -0.105487 -13.807261 26.691573 -16.874553 -16.896882 -7.416962 -58.782817 -47.847345 22.658005 138.892279 -78.155990 -117.322144 2.235624 -24.956505 -25.325551 16.037962 6.924297 -9.787239 27.330718 17.162146 -4.925188 -84.564417 43.070531 -68.668594 12.482863 9.382709 -0.858657 
34.754601 -36.142204 88.035698 -115.863944 1.884991 84.355521 18.646144 7.183838 -6.231052 -6.560611 9.145531 34.107736 -0.215106 3.263185 -24.174974 nan nan nan -17.632416 -13.560659 -9.256803 1.906865 -16.738017 24.916331 10.771613 -2.472884 -8.965446 nan nan nan -2.860931 2.254544 14.390112 3.857701 -4.367271 0.630438 0.920218 -1.890847 0.800871 3.595378 -6.716794 4.386093 -0.135463 -13.652782 26.645343 -16.975554 -16.826230 -7.272880 -58.612095 -47.627756 22.492717 139.649602 -77.951421 -117.998457 2.022235 -24.846309 -25.586211 16.027493 6.878756 -9.828940 27.376090 17.141085 -4.977089 -84.645069 43.092379 -68.885232 12.739013 9.321700 -0.896343 
34.849327 -36.022312 88.055191 -115.724497 1.895134 84.335932 18.955570 7.045651 -6.599694 -6.748098 9.483232 34.883034 -0.654518 3.287855 -24.360266 nan nan nan -17.659324 -13.511425 -9.294904 2.057727 -16.861867 25.137843 10.655389 -2.618290 -9.149997 nan nan nan -2.842823 2.165340 14.519371 3.946069 -4.412219 0.596749 0.979735 -1.892136 0.682772 3.594720 -6.777357 4.526289 -0.147544 -13.594362 26.551212 -17.080459 -16.706650 -7.178662 -58.659664 -47.373683 22.376295 140.071033 -77.857525 -118.310833 1.762533 -24.912518 -25.683189 15.928887 6.859651 -9.862047 27.526723 17.135202 -5.013205 -84.658662 43.123418 -68.880049 12.700593 9.276124 -0.899007 
34.921131 -35.914417 88.059105 -115.523905 1.909088 84.277257 19.286146 6.894806 -6.947326 -7.034963 9.763760 35.697845 -1.163780 3.208955 -24.709650 nan nan nan -17.740783 -13.550344 -9.266606 2.194578 -17.061169 25.410135 10.586648 -2.621165 -9.383310 nan nan nan -2.801362 2.095039 14.709265 4.054839 -4.525296 0.480088 1.021142 -1.932882 0.612849 3.578288 -6.813951 4.575970 -0.203255 -13.649589 26.581306 -17.133643 -16.563591 -7.123808 -58.764310 -47.094365 22.320721 140.446291 -77.767639 -118.655351 1.696230 -25.015595 -25.775516 15.902974 6.897644 -9.804501 27.533913 17.101817 -5.034889 -84.613396 43.112504 -68.884321 12.481740 9.320711 -1.015696 
34.972519 -35.823139 88.054665 -115.307882 1.896003 84.190885 19.560307 6.833107 -7.247404 -7.247460 9.939307 36.445686 -1.567328 3.005379 -24.950832 nan nan nan -17.827607 -13.668174 -9.197307 2.232927 -17.200796 25.684783 10.492945 -2.524063 -9.591080 nan nan nan -2.792612 2.062076 14.918767 4.149536 -4.670672 0.367874 1.069592 -1.954683 0.524862 3.617993 -6.907041 4.622883 -0.270049 -13.722216 26.720711 -17.130055 -16.478710 -7.079665 -58.727464 -46.844299 22.276371 140.628483 -77.739643 -118.961252 1.866881 -25.204849 -25.993755 15.902338 6.853248 -9.802618 27.466167 17.061879 -5.084426 -84.378139 43.212963 -68.840267 12.315826 9.456101 -1.203654 
35.034939 -35.749527 88.033768 -115.143731 1.872607 84.114318 19.772759 6.814510 -7.518161 -7.371212 10.050715 37.114231 -1.830902 2.785561 -25.128185 nan nan nan -17.929206 -13.773543 -9.178325 2.281669 -17.315281 25.966190 10.418249 -2.417497 -9.778678 nan nan nan -2.847657 2.039188 15.024290 4.255239 -4.804943 0.380251 1.134064 -1.991815 0.501849 3.751596 -6.903583 4.613382 -0.325383 -13.786080 26.777835 -17.168285 -16.398965 -7.101312 -58.448028 -46.735376 22.166259 140.763189 -77.757370 -119.248894 2.012261 -25.293332 -25.988144 15.979791 6.803303 -9.858822 27.257251 17.151697 -5.201165 -83.977815 43.411827 -68.622650 12.275204 9.555068 -1.094515 
35.088848 -35.690723 87.997337 -115.083709 1.869041 83.995505 19.994985 6.829184 -7.678921 -7.489582 10.101892 37.747898 -1.925853 2.705524 -25.423974 nan nan nan -18.104072 -13.895970 -9.140079 2.476661 -17.430035 26.251512 10.383565 -2.262148 -9.939465 nan nan nan -2.845831 2.050659 15.092490 4.333217 -4.891912 0.489327 1.170127 -2.086483 0.504876 3.947231 -6.888840 4.555136 -0.393856 -13.847303 26.735395 -17.203137 -16.372321 -7.122604 -58.039520 -46.695165 21.914624 141.072785 -77.688947 -119.550622 1.926033 -25.115971 -25.849570 16.071308 6.903524 -9.750687 27.023006 17.264754 -5.377941 -83.695951 43.458684 -68.373294 12.352890 9.483470 -0.906979 
35.136311 -35.662197 87.949188 -115.068147 1.899264 83.903265 20.232017 6.872834 -7.877043 -7.559062 10.175080 38.413455 -2.034534 2.663589 -25.784019 nan nan nan -18.221681 -13.976750 -9.164125 2.601768 -17.579736 26.559205 10.354589 -2.089919 -10.045493 nan nan nan -2.808667 2.106943 15.159419 4.416435 -4.928691 0.584899 1.229473 -2.115480 0.430061 4.139770 -6.968374 4.565191 -0.449165 -13.919120 26.710738 -17.229423 -16.490533 -7.026117 -57.881613 -46.671910 21.782328 140.757896 -77.633536 -119.215009 1.677798 -25.079134 -25.898734 16.080125 7.045141 -9.612920 26.814887 17.193247 -5.558496 -83.471917 43.291059 -68.176375 12.598310 9.471069 -1.076526 
35.186966 -35.659950 87.891998 -115.029787 1.949438 83.909610 20.442141 6.951044 -8.186211 -7.659794 10.241133 39.088438 -2.162556 2.610370 -26.150384 nan nan nan -18.258600 -13.988817 -9.318565 2.640402 -17.739986 26.873198 10.343493 -2.008721 -10.150839 nan nan nan -2.781022 2.150992 15.234282 4.535706 -4.914584 0.499235 1.325516 -2.094788 0.349460 4.238378 -7.143821 4.636346 -0.413105 -13.993728 26.714488 -17.357378 -16.638649 -6.831312 -57.873297 -46.659045 21.787937 140.227925 -77.663115 -118.793441 1.490469 -25.248757 -25.917936 16.119572 7.056024 -9.649140 26.510431 16.994634 -5.705514 -83.049234 43.238572 -68.036131 12.803825 9.639961 -1.310293 
35.220314 -35.663914 87.818764 -115.013278 2.025290 83.901608 20.635076 7.011805 -8.433549 -7.687156 10.291862 39.772487 -2.052082 2.671369 -26.591446 nan nan nan -18.273075 -14.012939 -9.471759 2.726456 -17.769925 27.175797 10.301856 -2.027681 -10.297444 nan nan nan -2.707581 2.135697 15.278235 4.644885 -4.876714 0.362124 1.405659 -2.153683 0.386961 4.316408 -7.313927 4.644033 -0.424982 -13.979066 26.735487 -17.507099 -16.697394 -6.704428 -57.764702 -46.632348 21.676587 140.107184 -77.706581 -118.730682 1.218074 -25.303306 -25.657102 16.212142 7.082598 -9.641551 26.137444 16.974361 -5.870013 -82.483569 43.250960 -67.806741 12.833241 9.747812 -1.148345 
35.234142 -35.680489 87.732620 -115.121625 2.145404 83.831389 20.874334 7.105680 -8.529062 -7.549349 10.364381 40.403657 -1.793341 2.782864 -27.026263 nan nan nan -18.197477 -13.982449 -9.664750 2.740943 -17.684178 27.580403 10.227835 -2.053494 -10.494074 nan nan nan -2.627844 2.099876 15.230012 4.770485 -4.811079 0.419230 1.484955 -2.199687 0.461831 4.452596 -7.406217 4.595054 -0.521641 -13.958174 26.712050 -17.614993 -16.778845 -6.680108 -57.688384 -46.571361 21.571847 139.886009 -77.679895 -118.409063 0.874070 -25.152275 -25.282550 16.249546 7.259482 -9.496296 25.772001 17.057065 -6.090093 -82.004671 43.124443 -67.443009 12.966115 9.598256 -1.032896 
35.225655 -35.713219 87.643059 -115.323800 2.270611 83.719652 21.099038 7.273912 -8.476727 -7.413994 10.368564 40.879635 -1.776221 2.747251 -27.219204 nan nan nan -18.100980 -13.919846 -9.879142 2.667416 -17.578513 28.057453 10.154568 -2.007566 -10.645805 nan nan nan -2.545184 2.097843 15.189329 4.884499 -4.685709 0.512056 1.564947 -2.244305 0.523244 4.657007 -7.436035 4.535743 -0.621256 -13.983037 26.755430 -17.688433 -16.844573 -6.730405 -57.777554 -46.477935 21.624867 139.640641 -77.714895 -118.029208 0.879392 -24.939750 -24.909705 16.208008 7.364908 -9.403376 25.495564 17.112710 -6.287115 -81.441056 43.126147 -67.070666 12.979339 9.410947 -1.280134 
35.207146 -35.762619 87.556473 -115.512112 2.362412 83.597653 21.233181 7.363642 -8.338821 -7.353694 10.320032 41.137384 -1.962057 2.676541 -27.118522 nan nan nan -18.075507 -13.892878 -10.065212 2.583327 -17.514828 28.524908 10.108422 -1.937148 -10.774005 nan nan nan -2.498682 2.103963 15.183122 4.981208 -4.586479 0.598792 1.648332 -2.225076 0.516101 4.883518 -7.497834 4.510641 -0.653375 -14.012349 26.895107 -17.780569 -16.873616 -6.731861 -57.969250 -46.453596 21.720568 139.459721 -77.890785 -117.709216 0.907043 -24.840296 -24.516209 16.162008 7.379785 -9.401341 25.315768 17.141722 -6.431529 -80.856819 43.139665 -66.805778 13.025398 9.372938 -1.661526 
